# This file uses centimeters as units for non-parametric coordinates.

mtllib Desk.mtl
g default
v -3.601552 2.262294 5.711461
v -3.601552 1.928419 5.711461
v -3.601552 2.262294 -3.247659
v -3.601552 1.928419 -3.247659
v -3.935426 2.262294 -3.247659
v -3.935426 1.928419 -3.247659
v -3.935426 2.262294 5.711461
v -3.935426 1.928419 5.711461
v -0.166937 0.595286 6.005620
v 0.166937 0.595286 6.005620
v -0.166937 0.595286 5.671746
v 0.166937 0.595286 5.671746
v 0.166937 6.517008 6.005620
v -0.166937 6.517008 6.005620
v -0.166937 6.517008 5.671746
v 0.166937 6.517008 5.671746
v -4.006677 0.595286 -3.198973
v -3.672802 0.595286 -3.198973
v -4.006677 0.595286 -3.532848
v -3.672802 0.595286 -3.532848
v -3.672802 6.275594 -3.198973
v -4.006677 6.275594 -3.198973
v -4.006677 6.275594 -3.532848
v -3.672802 6.275594 -3.532848
v -4.006677 0.595286 6.005620
v -3.672802 0.595286 6.005620
v -4.006677 0.595286 5.671746
v -3.672802 0.595286 5.671746
v -3.672802 6.617845 6.005620
v -4.006677 6.617845 6.005620
v -4.006677 6.617845 5.671746
v -3.672802 6.617845 5.671746
v -3.776906 2.262294 5.996656
v -3.776906 1.928419 5.996656
v -0.082786 2.262294 5.996656
v -0.082786 1.928419 5.996656
v -0.082786 2.262294 5.662781
v -0.082786 1.928419 5.662781
v -3.776906 2.262294 5.662781
v -3.776906 1.928419 5.662781
v -0.160707 0.595286 -3.198973
v 0.173167 0.595286 -3.198973
v -0.160707 0.595286 -3.532848
v 0.173167 0.595286 -3.532848
v 0.173167 6.400299 -3.198973
v -0.160707 6.400299 -3.198973
v -0.160707 6.400299 -3.532848
v 0.173167 6.400299 -3.532848
v -3.776906 2.262294 -3.193664
v -3.776906 1.928419 -3.193664
v -0.082786 2.262294 -3.193664
v -0.082786 1.928419 -3.193664
v -0.082786 2.262294 -3.527539
v -0.082786 1.928419 -3.527539
v -3.776906 2.262294 -3.527539
v -3.776906 1.928419 -3.527539
v -4.741715 6.156924 6.666105
v 0.909219 6.156924 6.666105
v -4.741715 6.653214 6.666105
v 0.909219 6.653214 6.666105
v -4.741715 6.653214 -3.973505
v 0.909219 6.653214 -3.973505
v -4.741715 6.156924 -3.973505
v 0.909219 6.156924 -3.973505
v -4.125350 1.703504 6.135715
v -3.558177 1.703504 6.135715
v -4.125350 2.498214 6.135715
v -3.558177 2.498214 6.135715
v -4.125350 2.498214 5.568542
v -3.558177 2.498214 5.568542
v -4.125350 1.703504 5.568542
v -3.558177 1.703504 5.568542
v -0.313030 1.703504 6.135715
v 0.254143 1.703504 6.135715
v -0.313030 2.498214 6.135715
v 0.254143 2.498214 6.135715
v -0.313030 2.498214 5.568542
v 0.254143 2.498214 5.568542
v -0.313030 1.703504 5.568542
v 0.254143 1.703504 5.568542
v -4.125350 1.703504 -3.091550
v -3.558177 1.703504 -3.091550
v -4.125350 2.498214 -3.091550
v -3.558177 2.498214 -3.091550
v -4.125350 2.498214 -3.658723
v -3.558177 2.498214 -3.658723
v -4.125350 1.703504 -3.658723
v -3.558177 1.703504 -3.658723
v -0.289204 1.703504 -3.091550
v 0.277969 1.703504 -3.091550
v -0.289204 2.498214 -3.091550
v 0.277969 2.498214 -3.091550
v -0.289204 2.498214 -3.658723
v 0.277969 2.498214 -3.658723
v -0.289204 1.703504 -3.658723
v 0.277969 1.703504 -3.658723
vt 0.320141 0.034206
vt 0.351784 0.034206
vt 0.320141 0.065849
vt 0.351784 0.065849
vt 0.320141 0.097492
vt 0.351784 0.097492
vt 0.320141 0.129134
vt 0.351784 0.129134
vt 0.320141 0.160777
vt 0.351784 0.160777
vt 0.383427 0.034206
vt 0.383427 0.065849
vt 0.288498 0.034206
vt 0.288498 0.065849
vt 0.740455 0.727597
vt 0.840112 0.727597
vt 0.840112 0.815728
vt 0.740455 0.815728
vt 0.338051 0.782932
vt 0.437708 0.782932
vt 0.437708 0.871064
vt 0.338051 0.871064
vt 0.437708 0.970721
vt 0.338051 0.970721
vt 0.939770 0.727597
vt 0.939770 0.815728
vt 0.640797 0.727597
vt 0.640797 0.815728
vt 0.740455 0.438742
vt 0.840112 0.438742
vt 0.840112 0.523281
vt 0.740455 0.523281
vt 0.187306 0.786525
vt 0.286963 0.786525
vt 0.286963 0.871064
vt 0.187306 0.871064
vt 0.286963 0.970721
vt 0.187306 0.970721
vt 0.939770 0.438742
vt 0.939770 0.523281
vt 0.640797 0.438742
vt 0.640797 0.523281
vt 0.759412 0.894224
vt 0.859069 0.894224
vt 0.859069 0.983856
vt 0.759412 0.983856
vt 0.503486 0.781432
vt 0.603143 0.781432
vt 0.603143 0.871064
vt 0.503486 0.871064
vt 0.603143 0.970721
vt 0.503486 0.970721
vt 0.958727 0.894224
vt 0.958727 0.983856
vt 0.659754 0.894224
vt 0.659754 0.983856
vt 0.043574 0.032183
vt 0.075217 0.032183
vt 0.075217 0.063826
vt 0.043574 0.063826
vt 0.075217 0.095469
vt 0.043574 0.095469
vt 0.075217 0.127112
vt 0.043574 0.127112
vt 0.075217 0.158755
vt 0.043574 0.158755
vt 0.106860 0.032183
vt 0.106860 0.063826
vt 0.011931 0.032183
vt 0.011931 0.063826
vt 0.740455 0.577918
vt 0.840112 0.577918
vt 0.840112 0.664312
vt 0.740455 0.664312
vt 0.031877 0.784669
vt 0.131534 0.784669
vt 0.131534 0.871064
vt 0.031877 0.871064
vt 0.131534 0.970721
vt 0.031877 0.970721
vt 0.939770 0.577918
vt 0.939770 0.664312
vt 0.640797 0.577918
vt 0.640797 0.664312
vt 0.123818 0.235715
vt 0.223476 0.235715
vt 0.223476 0.335372
vt 0.123818 0.335372
vt 0.223476 0.435030
vt 0.123818 0.435030
vt 0.223476 0.534687
vt 0.123818 0.534687
vt 0.223476 0.634345
vt 0.123818 0.634345
vt 0.323133 0.235715
vt 0.323133 0.335372
vt 0.024161 0.235715
vt 0.024161 0.335372
vt 0.481163 0.142091
vt 0.580821 0.142091
vt 0.580821 0.241748
vt 0.481163 0.241748
vt 0.580821 0.341406
vt 0.481163 0.341406
vt 0.580821 0.441063
vt 0.481163 0.441063
vt 0.580821 0.540721
vt 0.481163 0.540721
vt 0.680478 0.142091
vt 0.680478 0.241748
vt 0.381506 0.142091
vt 0.381506 0.241748
vt 0.766401 0.389139
vt 0.695237 0.388267
vt 0.696109 0.317103
vt 0.767273 0.317975
vt 0.696981 0.245939
vt 0.768145 0.246811
vt 0.697852 0.174775
vt 0.769017 0.175647
vt 0.698724 0.103611
vt 0.769888 0.104483
vt 0.624073 0.387396
vt 0.624945 0.316231
vt 0.837565 0.390011
vt 0.838437 0.318847
vt 0.834569 0.022585
vt 0.905739 0.022585
vt 0.905739 0.093754
vt 0.834569 0.093754
vt 0.905739 0.164924
vt 0.834569 0.164924
vt 0.905739 0.236093
vt 0.834569 0.236093
vt 0.905739 0.307263
vt 0.834569 0.307263
vt 0.976908 0.022585
vt 0.976908 0.093754
vt 0.763400 0.022585
vt 0.763400 0.093754
vt 0.397919 0.754019
vt 0.298264 0.753436
vt 0.298847 0.653780
vt 0.398503 0.654363
vt 0.299430 0.554125
vt 0.399086 0.554708
vt 0.300013 0.454468
vt 0.399669 0.455052
vt 0.300596 0.354813
vt 0.400252 0.355396
vt 0.198608 0.752853
vt 0.199191 0.653197
vt 0.497575 0.754602
vt 0.498158 0.654946
vt 0.186301 0.034889
vt 0.217944 0.034889
vt 0.217944 0.066532
vt 0.186301 0.066532
vt 0.217944 0.098175
vt 0.186301 0.098175
vt 0.217944 0.129817
vt 0.186301 0.129817
vt 0.217944 0.161461
vt 0.186301 0.161461
vt 0.249587 0.034889
vt 0.249587 0.066532
vt 0.154658 0.034889
vt 0.154658 0.066532
vn 1.000000 0.000000 0.000000
vn 1.000000 0.000000 0.000000
vn 1.000000 0.000000 0.000000
vn 1.000000 0.000000 0.000000
vn 0.000000 0.000000 -1.000000
vn 0.000000 0.000000 -1.000000
vn 0.000000 0.000000 -1.000000
vn 0.000000 0.000000 -1.000000
vn -1.000000 0.000000 0.000000
vn -1.000000 0.000000 0.000000
vn -1.000000 0.000000 0.000000
vn -1.000000 0.000000 0.000000
vn 0.000000 0.000000 1.000000
vn 0.000000 0.000000 1.000000
vn 0.000000 0.000000 1.000000
vn 0.000000 0.000000 1.000000
vn 0.000000 -1.000000 0.000000
vn 0.000000 -1.000000 0.000000
vn 0.000000 -1.000000 0.000000
vn 0.000000 -1.000000 0.000000
vn 0.000000 1.000000 0.000000
vn 0.000000 1.000000 0.000000
vn 0.000000 1.000000 0.000000
vn 0.000000 1.000000 0.000000
vn 0.000000 0.000000 1.000000
vn 0.000000 0.000000 1.000000
vn 0.000000 0.000000 1.000000
vn 0.000000 0.000000 1.000000
vn 0.000000 0.000000 -1.000000
vn 0.000000 0.000000 -1.000000
vn 0.000000 0.000000 -1.000000
vn 0.000000 0.000000 -1.000000
vn 0.000000 -1.000000 0.000000
vn 0.000000 -1.000000 0.000000
vn 0.000000 -1.000000 0.000000
vn 0.000000 -1.000000 0.000000
vn 1.000000 0.000000 0.000000
vn 1.000000 0.000000 0.000000
vn 1.000000 0.000000 0.000000
vn 1.000000 0.000000 0.000000
vn -1.000000 0.000000 0.000000
vn -1.000000 0.000000 0.000000
vn -1.000000 0.000000 0.000000
vn -1.000000 0.000000 0.000000
vn 0.000000 0.000000 1.000000
vn 0.000000 0.000000 1.000000
vn 0.000000 0.000000 1.000000
vn 0.000000 0.000000 1.000000
vn 0.000000 0.000000 -1.000000
vn 0.000000 0.000000 -1.000000
vn 0.000000 0.000000 -1.000000
vn 0.000000 0.000000 -1.000000
vn 0.000000 -1.000000 0.000000
vn 0.000000 -1.000000 0.000000
vn 0.000000 -1.000000 0.000000
vn 0.000000 -1.000000 0.000000
vn 1.000000 0.000000 0.000000
vn 1.000000 0.000000 0.000000
vn 1.000000 0.000000 0.000000
vn 1.000000 0.000000 0.000000
vn -1.000000 0.000000 0.000000
vn -1.000000 0.000000 0.000000
vn -1.000000 0.000000 0.000000
vn -1.000000 0.000000 0.000000
vn 0.000000 0.000000 1.000000
vn 0.000000 0.000000 1.000000
vn 0.000000 0.000000 1.000000
vn 0.000000 0.000000 1.000000
vn 0.000000 0.000000 -1.000000
vn 0.000000 0.000000 -1.000000
vn 0.000000 0.000000 -1.000000
vn 0.000000 0.000000 -1.000000
vn 0.000000 -1.000000 0.000000
vn 0.000000 -1.000000 0.000000
vn 0.000000 -1.000000 0.000000
vn 0.000000 -1.000000 0.000000
vn 1.000000 0.000000 0.000000
vn 1.000000 0.000000 0.000000
vn 1.000000 0.000000 0.000000
vn 1.000000 0.000000 0.000000
vn -1.000000 0.000000 0.000000
vn -1.000000 0.000000 0.000000
vn -1.000000 0.000000 0.000000
vn -1.000000 0.000000 0.000000
vn 0.000000 0.000000 1.000000
vn 0.000000 0.000000 1.000000
vn 0.000000 0.000000 1.000000
vn 0.000000 0.000000 1.000000
vn 1.000000 0.000000 0.000000
vn 1.000000 0.000000 0.000000
vn 1.000000 0.000000 0.000000
vn 1.000000 0.000000 0.000000
vn 0.000000 0.000000 -1.000000
vn 0.000000 0.000000 -1.000000
vn 0.000000 0.000000 -1.000000
vn 0.000000 0.000000 -1.000000
vn -1.000000 0.000000 0.000000
vn -1.000000 0.000000 0.000000
vn -1.000000 0.000000 0.000000
vn -1.000000 0.000000 0.000000
vn 0.000000 -1.000000 0.000000
vn 0.000000 -1.000000 0.000000
vn 0.000000 -1.000000 0.000000
vn 0.000000 -1.000000 0.000000
vn 0.000000 1.000000 0.000000
vn 0.000000 1.000000 0.000000
vn 0.000000 1.000000 0.000000
vn 0.000000 1.000000 0.000000
vn 0.000000 0.000000 1.000000
vn 0.000000 0.000000 1.000000
vn 0.000000 0.000000 1.000000
vn 0.000000 0.000000 1.000000
vn 0.000000 0.000000 -1.000000
vn 0.000000 0.000000 -1.000000
vn 0.000000 0.000000 -1.000000
vn 0.000000 0.000000 -1.000000
vn 0.000000 -1.000000 0.000000
vn 0.000000 -1.000000 0.000000
vn 0.000000 -1.000000 0.000000
vn 0.000000 -1.000000 0.000000
vn 1.000000 0.000000 0.000000
vn 1.000000 0.000000 0.000000
vn 1.000000 0.000000 0.000000
vn 1.000000 0.000000 0.000000
vn -1.000000 0.000000 0.000000
vn -1.000000 0.000000 0.000000
vn -1.000000 0.000000 0.000000
vn -1.000000 0.000000 0.000000
vn 0.000000 0.000000 1.000000
vn 0.000000 0.000000 1.000000
vn 0.000000 0.000000 1.000000
vn 0.000000 0.000000 1.000000
vn 1.000000 0.000000 0.000000
vn 1.000000 0.000000 0.000000
vn 1.000000 0.000000 0.000000
vn 1.000000 0.000000 0.000000
vn 0.000000 0.000000 -1.000000
vn 0.000000 0.000000 -1.000000
vn 0.000000 0.000000 -1.000000
vn 0.000000 0.000000 -1.000000
vn -1.000000 0.000000 0.000000
vn -1.000000 0.000000 0.000000
vn -1.000000 0.000000 0.000000
vn -1.000000 0.000000 0.000000
vn 0.000000 -1.000000 0.000000
vn 0.000000 -1.000000 0.000000
vn 0.000000 -1.000000 0.000000
vn 0.000000 -1.000000 0.000000
vn 0.000000 1.000000 0.000000
vn 0.000000 1.000000 0.000000
vn 0.000000 1.000000 0.000000
vn 0.000000 1.000000 0.000000
vn 0.000000 0.000000 1.000000
vn 0.000000 0.000000 1.000000
vn 0.000000 0.000000 1.000000
vn 0.000000 0.000000 1.000000
vn 0.000000 1.000000 0.000000
vn 0.000000 1.000000 0.000000
vn 0.000000 1.000000 0.000000
vn 0.000000 1.000000 0.000000
vn 0.000000 0.000000 -1.000000
vn 0.000000 0.000000 -1.000000
vn 0.000000 0.000000 -1.000000
vn 0.000000 0.000000 -1.000000
vn 0.000000 -1.000000 0.000000
vn 0.000000 -1.000000 0.000000
vn 0.000000 -1.000000 0.000000
vn 0.000000 -1.000000 0.000000
vn 1.000000 0.000000 0.000000
vn 1.000000 0.000000 0.000000
vn 1.000000 0.000000 0.000000
vn 1.000000 0.000000 0.000000
vn -1.000000 0.000000 0.000000
vn -1.000000 0.000000 0.000000
vn -1.000000 0.000000 0.000000
vn -1.000000 0.000000 0.000000
vn 0.000000 0.000000 1.000000
vn 0.000000 0.000000 1.000000
vn 0.000000 0.000000 1.000000
vn 0.000000 0.000000 1.000000
vn 0.000000 1.000000 0.000000
vn 0.000000 1.000000 0.000000
vn 0.000000 1.000000 0.000000
vn 0.000000 1.000000 0.000000
vn 0.000000 0.000000 -1.000000
vn 0.000000 0.000000 -1.000000
vn 0.000000 0.000000 -1.000000
vn 0.000000 0.000000 -1.000000
vn 0.000000 -1.000000 0.000000
vn 0.000000 -1.000000 0.000000
vn 0.000000 -1.000000 0.000000
vn 0.000000 -1.000000 0.000000
vn 1.000000 0.000000 0.000000
vn 1.000000 0.000000 0.000000
vn 1.000000 0.000000 0.000000
vn 1.000000 0.000000 0.000000
vn -1.000000 0.000000 0.000000
vn -1.000000 0.000000 0.000000
vn -1.000000 0.000000 0.000000
vn -1.000000 0.000000 0.000000
vn 0.000000 0.000000 1.000000
vn 0.000000 0.000000 1.000000
vn 0.000000 0.000000 1.000000
vn 0.000000 0.000000 1.000000
vn 0.000000 1.000000 0.000000
vn 0.000000 1.000000 0.000000
vn 0.000000 1.000000 0.000000
vn 0.000000 1.000000 0.000000
vn 0.000000 0.000000 -1.000000
vn 0.000000 0.000000 -1.000000
vn 0.000000 0.000000 -1.000000
vn 0.000000 0.000000 -1.000000
vn 0.000000 -1.000000 0.000000
vn 0.000000 -1.000000 0.000000
vn 0.000000 -1.000000 0.000000
vn 0.000000 -1.000000 0.000000
vn 1.000000 0.000000 0.000000
vn 1.000000 0.000000 0.000000
vn 1.000000 0.000000 0.000000
vn 1.000000 0.000000 0.000000
vn -1.000000 0.000000 0.000000
vn -1.000000 0.000000 0.000000
vn -1.000000 0.000000 0.000000
vn -1.000000 0.000000 0.000000
vn 0.000000 0.000000 1.000000
vn 0.000000 0.000000 1.000000
vn 0.000000 0.000000 1.000000
vn 0.000000 0.000000 1.000000
vn 0.000000 1.000000 0.000000
vn 0.000000 1.000000 0.000000
vn 0.000000 1.000000 0.000000
vn 0.000000 1.000000 0.000000
vn 0.000000 0.000000 -1.000000
vn 0.000000 0.000000 -1.000000
vn 0.000000 0.000000 -1.000000
vn 0.000000 0.000000 -1.000000
vn 0.000000 -1.000000 0.000000
vn 0.000000 -1.000000 0.000000
vn 0.000000 -1.000000 0.000000
vn 0.000000 -1.000000 0.000000
vn 1.000000 0.000000 0.000000
vn 1.000000 0.000000 0.000000
vn 1.000000 0.000000 0.000000
vn 1.000000 0.000000 0.000000
vn -1.000000 0.000000 0.000000
vn -1.000000 0.000000 0.000000
vn -1.000000 0.000000 0.000000
vn -1.000000 0.000000 0.000000
vn 0.000000 0.000000 1.000000
vn 0.000000 0.000000 1.000000
vn 0.000000 0.000000 1.000000
vn 0.000000 0.000000 1.000000
vn 0.000000 1.000000 0.000000
vn 0.000000 1.000000 0.000000
vn 0.000000 1.000000 0.000000
vn 0.000000 1.000000 0.000000
vn 0.000000 0.000000 -1.000000
vn 0.000000 0.000000 -1.000000
vn 0.000000 0.000000 -1.000000
vn 0.000000 0.000000 -1.000000
vn 0.000000 -1.000000 0.000000
vn 0.000000 -1.000000 0.000000
vn 0.000000 -1.000000 0.000000
vn 0.000000 -1.000000 0.000000
vn 1.000000 0.000000 0.000000
vn 1.000000 0.000000 0.000000
vn 1.000000 0.000000 0.000000
vn 1.000000 0.000000 0.000000
vn -1.000000 0.000000 0.000000
vn -1.000000 0.000000 0.000000
vn -1.000000 0.000000 0.000000
vn -1.000000 0.000000 0.000000
s off
g pasted__pasted__pasted__pasted__pCube1
usemtl initialShadingGroup
f 1/1/1 2/2/2 4/4/3 3/3/4
f 3/3/5 4/4/6 6/6/7 5/5/8
f 5/5/9 6/6/10 8/8/11 7/7/12
f 7/7/13 8/8/14 2/10/15 1/9/16
f 2/2/17 8/11/18 6/12/19 4/4/20
f 7/13/21 1/1/22 3/3/23 5/14/24
f 9/15/25 10/16/26 13/17/27 14/18/28
f 15/19/29 16/20/30 12/21/31 11/22/32
f 11/22/33 12/21/34 10/23/35 9/24/36
f 10/16/37 12/25/38 16/26/39 13/17/40
f 11/27/41 9/15/42 14/18/43 15/28/44
f 17/29/45 18/30/46 21/31/47 22/32/48
f 23/33/49 24/34/50 20/35/51 19/36/52
f 19/36/53 20/35/54 18/37/55 17/38/56
f 18/30/57 20/39/58 24/40/59 21/31/60
f 19/41/61 17/29/62 22/32/63 23/42/64
f 25/43/65 26/44/66 29/45/67 30/46/68
f 31/47/69 32/48/70 28/49/71 27/50/72
f 27/50/73 28/49/74 26/51/75 25/52/76
f 26/44/77 28/53/78 32/54/79 29/45/80
f 27/55/81 25/43/82 30/46/83 31/56/84
f 33/57/85 34/58/86 36/59/87 35/60/88
f 35/60/89 36/59/90 38/61/91 37/62/92
f 37/62/93 38/61/94 40/63/95 39/64/96
f 39/64/97 40/63/98 34/65/99 33/66/100
f 34/58/101 40/67/102 38/68/103 36/59/104
f 39/69/105 33/57/106 35/60/107 37/70/108
f 41/71/109 42/72/110 45/73/111 46/74/112
f 47/75/113 48/76/114 44/77/115 43/78/116
f 43/78/117 44/77/118 42/79/119 41/80/120
f 42/72/121 44/81/122 48/82/123 45/73/124
f 43/83/125 41/71/126 46/74/127 47/84/128
f 49/85/129 50/86/130 52/87/131 51/88/132
f 51/88/133 52/87/134 54/89/135 53/90/136
f 53/90/137 54/89/138 56/91/139 55/92/140
f 55/92/141 56/91/142 50/93/143 49/94/144
f 50/86/145 56/95/146 54/96/147 52/87/148
f 55/97/149 49/85/150 51/88/151 53/98/152
f 57/99/153 58/100/154 60/101/155 59/102/156
f 59/102/157 60/101/158 62/103/159 61/104/160
f 61/104/161 62/103/162 64/105/163 63/106/164
f 63/106/165 64/105/166 58/107/167 57/108/168
f 58/100/169 64/109/170 62/110/171 60/101/172
f 63/111/173 57/99/174 59/102/175 61/112/176
f 65/113/177 66/114/178 68/115/179 67/116/180
f 67/116/181 68/115/182 70/117/183 69/118/184
f 69/118/185 70/117/186 72/119/187 71/120/188
f 71/120/189 72/119/190 66/121/191 65/122/192
f 66/114/193 72/123/194 70/124/195 68/115/196
f 71/125/197 65/113/198 67/116/199 69/126/200
f 73/127/201 74/128/202 76/129/203 75/130/204
f 75/130/205 76/129/206 78/131/207 77/132/208
f 77/132/209 78/131/210 80/133/211 79/134/212
f 79/134/213 80/133/214 74/135/215 73/136/216
f 74/128/217 80/137/218 78/138/219 76/129/220
f 79/139/221 73/127/222 75/130/223 77/140/224
f 81/141/225 82/142/226 84/143/227 83/144/228
f 83/144/229 84/143/230 86/145/231 85/146/232
f 85/146/233 86/145/234 88/147/235 87/148/236
f 87/148/237 88/147/238 82/149/239 81/150/240
f 82/142/241 88/151/242 86/152/243 84/143/244
f 87/153/245 81/141/246 83/144/247 85/154/248
f 89/155/249 90/156/250 92/157/251 91/158/252
f 91/158/253 92/157/254 94/159/255 93/160/256
f 93/160/257 94/159/258 96/161/259 95/162/260
f 95/162/261 96/161/262 90/163/263 89/164/264
f 90/156/265 96/165/266 94/166/267 92/157/268
f 95/167/269 89/155/270 91/158/271 93/168/272
