# This file uses centimeters as units for non-parametric coordinates.

mtllib ElevatorFloor.mtl
g default
v -4.222982 2.863917 3.951937
v 4.222982 2.863917 3.951937
v -4.222982 3.178118 3.951937
v 4.222982 3.178118 3.951937
v -4.222982 3.178118 -3.951937
v 4.222982 3.178118 -3.951937
v -4.222982 2.863917 -3.951937
v 4.222982 2.863917 -3.951937
vt 0.386818 0.038941
vt 0.626681 0.038941
vt 0.386818 0.278805
vt 0.626681 0.278805
vt 0.386818 0.518668
vt 0.626681 0.518668
vt 0.386818 0.758532
vt 0.626681 0.758532
vt 0.386818 0.998395
vt 0.626681 0.998395
vt 0.866545 0.038941
vt 0.866545 0.278805
vt 0.146954 0.038941
vt 0.146954 0.278805
vn 0.000000 0.000000 1.000000
vn 0.000000 0.000000 1.000000
vn 0.000000 0.000000 1.000000
vn 0.000000 0.000000 1.000000
vn 0.000000 1.000000 0.000000
vn 0.000000 1.000000 0.000000
vn 0.000000 1.000000 0.000000
vn 0.000000 1.000000 0.000000
vn 0.000000 0.000000 -1.000000
vn 0.000000 0.000000 -1.000000
vn 0.000000 0.000000 -1.000000
vn 0.000000 0.000000 -1.000000
vn 0.000000 -1.000000 0.000000
vn 0.000000 -1.000000 0.000000
vn 0.000000 -1.000000 0.000000
vn 0.000000 -1.000000 0.000000
vn 1.000000 0.000000 0.000000
vn 1.000000 0.000000 0.000000
vn 1.000000 0.000000 0.000000
vn 1.000000 0.000000 0.000000
vn -1.000000 0.000000 0.000000
vn -1.000000 0.000000 0.000000
vn -1.000000 0.000000 0.000000
vn -1.000000 0.000000 0.000000
s off
g Floor
usemtl initialShadingGroup
f 1/1/1 2/2/2 4/4/3 3/3/4
f 3/3/5 4/4/6 6/6/7 5/5/8
f 5/5/9 6/6/10 8/8/11 7/7/12
f 7/7/13 8/8/14 2/10/15 1/9/16
f 2/2/17 8/11/18 6/12/19 4/4/20
f 7/13/21 1/1/22 3/3/23 5/14/24
