# This file uses centimeters as units for non-parametric coordinates.

mtllib Elevator.mtl
g default
v 4.121241 3.168019 4.369864
v 4.121241 3.168019 3.955274
v 4.121241 12.403141 4.369864
v 4.121241 12.403141 3.955274
v 0.020229 12.403141 4.369864
v 0.020229 12.403141 3.955274
v 0.020229 3.168019 4.369864
v 0.020229 3.168019 3.955274
vt 0.175282 0.620932
vt 0.261319 0.620932
vt 0.175282 0.706969
vt 0.261319 0.706969
vt 0.175282 0.793006
vt 0.261319 0.793006
vt 0.175282 0.879042
vt 0.261319 0.879042
vt 0.175282 0.965079
vt 0.261319 0.965079
vt 0.347356 0.620932
vt 0.347356 0.706969
vt 0.089246 0.620932
vt 0.089246 0.706969
vn 1.000000 0.000000 0.000000
vn 1.000000 0.000000 0.000000
vn 1.000000 0.000000 0.000000
vn 1.000000 0.000000 0.000000
vn 0.000000 1.000000 0.000000
vn 0.000000 1.000000 0.000000
vn 0.000000 1.000000 0.000000
vn 0.000000 1.000000 0.000000
vn -1.000000 0.000000 -0.000000
vn -1.000000 0.000000 -0.000000
vn -1.000000 0.000000 -0.000000
vn -1.000000 0.000000 -0.000000
vn 0.000000 -1.000000 0.000000
vn 0.000000 -1.000000 0.000000
vn 0.000000 -1.000000 0.000000
vn 0.000000 -1.000000 0.000000
vn 0.000000 0.000000 -1.000000
vn 0.000000 0.000000 -1.000000
vn 0.000000 0.000000 -1.000000
vn 0.000000 0.000000 -1.000000
vn 0.000000 0.000000 1.000000
vn 0.000000 0.000000 1.000000
vn 0.000000 0.000000 1.000000
vn 0.000000 0.000000 1.000000
s off
g RightDoor
usemtl initialShadingGroup
f 1/1/1 2/2/2 4/4/3 3/3/4
f 3/3/5 4/4/6 6/6/7 5/5/8
f 5/5/9 6/6/10 8/8/11 7/7/12
f 7/7/13 8/8/14 2/10/15 1/9/16
f 2/2/17 8/11/18 6/12/19 4/4/20
f 7/13/21 1/1/22 3/3/23 5/14/24
g default
v -4.227344 3.168019 3.951937
v -3.812754 3.168019 3.951937
v -4.227344 12.403141 3.951937
v -3.812754 12.403141 3.951937
v -4.227344 12.403141 -3.951937
v -3.812754 12.403141 -3.951937
v -4.227344 3.168019 -3.951937
v -3.812754 3.168019 -3.951937
vt 0.593892 0.077933
vt 0.679929 0.077933
vt 0.593892 0.163970
vt 0.679929 0.163970
vt 0.593892 0.250007
vt 0.679929 0.250007
vt 0.593892 0.336043
vt 0.679929 0.336043
vt 0.593892 0.422080
vt 0.679929 0.422080
vt 0.765965 0.077933
vt 0.765965 0.163970
vt 0.507855 0.077933
vt 0.507855 0.163970
vn 0.000000 0.000000 1.000000
vn 0.000000 0.000000 1.000000
vn 0.000000 0.000000 1.000000
vn 0.000000 0.000000 1.000000
vn 0.000000 1.000000 0.000000
vn 0.000000 1.000000 0.000000
vn 0.000000 1.000000 0.000000
vn 0.000000 1.000000 0.000000
vn 0.000000 0.000000 -1.000000
vn 0.000000 0.000000 -1.000000
vn 0.000000 0.000000 -1.000000
vn 0.000000 0.000000 -1.000000
vn 0.000000 -1.000000 0.000000
vn 0.000000 -1.000000 0.000000
vn 0.000000 -1.000000 0.000000
vn 0.000000 -1.000000 0.000000
vn 1.000000 0.000000 0.000000
vn 1.000000 0.000000 0.000000
vn 1.000000 0.000000 0.000000
vn 1.000000 0.000000 0.000000
vn -1.000000 0.000000 0.000000
vn -1.000000 0.000000 0.000000
vn -1.000000 0.000000 0.000000
vn -1.000000 0.000000 0.000000
s off
g LeftWall
usemtl initialShadingGroup
f 9/15/25 10/16/26 12/18/27 11/17/28
f 11/17/29 12/18/30 14/20/31 13/19/32
f 13/19/33 14/20/34 16/22/35 15/21/36
f 15/21/37 16/22/38 10/24/39 9/23/40
f 10/16/41 16/25/42 14/26/43 12/18/44
f 15/27/45 9/15/46 11/17/47 13/28/48
g default
v -4.222982 2.863917 3.951937
v 4.222982 2.863917 3.951937
v -4.222982 3.178118 3.951937
v 4.222982 3.178118 3.951937
v -4.222982 3.178118 -3.951937
v 4.222982 3.178118 -3.951937
v -4.222982 2.863917 -3.951937
v 4.222982 2.863917 -3.951937
vt 0.766122 0.623300
vt 0.852158 0.623300
vt 0.766122 0.709337
vt 0.852158 0.709337
vt 0.766122 0.795373
vt 0.852158 0.795373
vt 0.766122 0.881410
vt 0.852158 0.881410
vt 0.766122 0.967447
vt 0.852158 0.967447
vt 0.938195 0.623300
vt 0.938195 0.709337
vt 0.680085 0.623300
vt 0.680085 0.709337
vn 0.000000 0.000000 1.000000
vn 0.000000 0.000000 1.000000
vn 0.000000 0.000000 1.000000
vn 0.000000 0.000000 1.000000
vn 0.000000 1.000000 0.000000
vn 0.000000 1.000000 0.000000
vn 0.000000 1.000000 0.000000
vn 0.000000 1.000000 0.000000
vn 0.000000 0.000000 -1.000000
vn 0.000000 0.000000 -1.000000
vn 0.000000 0.000000 -1.000000
vn 0.000000 0.000000 -1.000000
vn 0.000000 -1.000000 0.000000
vn 0.000000 -1.000000 0.000000
vn 0.000000 -1.000000 0.000000
vn 0.000000 -1.000000 0.000000
vn 1.000000 0.000000 0.000000
vn 1.000000 0.000000 0.000000
vn 1.000000 0.000000 0.000000
vn 1.000000 0.000000 0.000000
vn -1.000000 0.000000 0.000000
vn -1.000000 0.000000 0.000000
vn -1.000000 0.000000 0.000000
vn -1.000000 0.000000 0.000000
s off
g Floor
usemtl initialShadingGroup
f 17/29/49 18/30/50 20/32/51 19/31/52
f 19/31/53 20/32/54 22/34/55 21/33/56
f 21/33/57 22/34/58 24/36/59 23/35/60
f 23/35/61 24/36/62 18/38/63 17/37/64
f 18/30/65 24/39/66 22/40/67 20/32/68
f 23/41/69 17/29/70 19/31/71 21/42/72
g default
v 0.010244 3.168019 4.369864
v 0.010244 3.168019 3.955274
v 0.010244 12.403141 4.369864
v 0.010244 12.403141 3.955274
v -4.090768 12.403141 4.369864
v -4.090768 12.403141 3.955274
v -4.090768 3.168019 4.369864
v -4.090768 3.168019 3.955274
vt 0.828089 0.238830
vt 0.914126 0.238830
vt 0.828089 0.324867
vt 0.914126 0.324867
vt 0.828089 0.410904
vt 0.914126 0.410904
vt 0.828089 0.496940
vt 0.914126 0.496940
vt 0.828089 0.582977
vt 0.914126 0.582977
vt 1.000163 0.238830
vt 1.000163 0.324867
vt 0.742053 0.238830
vt 0.742053 0.324867
vn 1.000000 0.000000 0.000000
vn 1.000000 0.000000 0.000000
vn 1.000000 0.000000 0.000000
vn 1.000000 0.000000 0.000000
vn 0.000000 1.000000 0.000000
vn 0.000000 1.000000 0.000000
vn 0.000000 1.000000 0.000000
vn 0.000000 1.000000 0.000000
vn -1.000000 0.000000 -0.000000
vn -1.000000 0.000000 -0.000000
vn -1.000000 0.000000 -0.000000
vn -1.000000 0.000000 -0.000000
vn 0.000000 -1.000000 0.000000
vn 0.000000 -1.000000 0.000000
vn 0.000000 -1.000000 0.000000
vn 0.000000 -1.000000 0.000000
vn 0.000000 0.000000 -1.000000
vn 0.000000 0.000000 -1.000000
vn 0.000000 0.000000 -1.000000
vn 0.000000 0.000000 -1.000000
vn 0.000000 0.000000 1.000000
vn 0.000000 0.000000 1.000000
vn 0.000000 0.000000 1.000000
vn 0.000000 0.000000 1.000000
s off
g LeftDoor
usemtl initialShadingGroup
f 25/43/73 26/44/74 28/46/75 27/45/76
f 27/45/77 28/46/78 30/48/79 29/47/80
f 29/47/81 30/48/82 32/50/83 31/49/84
f 31/49/85 32/50/86 26/52/87 25/51/88
f 26/44/89 32/53/90 30/54/91 28/46/92
f 31/55/93 25/43/94 27/45/95 29/56/96
g default
v 4.086208 3.168019 -3.550530
v 4.086208 3.168019 -3.965121
v 4.086208 12.403141 -3.550530
v 4.086208 12.403141 -3.965121
v -3.817665 12.403141 -3.550530
v -3.817665 12.403141 -3.965121
v -3.817665 3.168019 -3.550530
v -3.817665 3.168019 -3.965121
vt 0.371086 0.197113
vt 0.457123 0.197113
vt 0.371086 0.283150
vt 0.457123 0.283150
vt 0.371086 0.369186
vt 0.457123 0.369186
vt 0.371086 0.455223
vt 0.457123 0.455223
vt 0.371086 0.541260
vt 0.457123 0.541260
vt 0.543159 0.197113
vt 0.543159 0.283150
vt 0.285049 0.197113
vt 0.285049 0.283150
vn 1.000000 0.000000 0.000000
vn 1.000000 0.000000 0.000000
vn 1.000000 0.000000 0.000000
vn 1.000000 0.000000 0.000000
vn 0.000000 1.000000 0.000000
vn 0.000000 1.000000 0.000000
vn 0.000000 1.000000 0.000000
vn 0.000000 1.000000 0.000000
vn -1.000000 0.000000 -0.000000
vn -1.000000 0.000000 -0.000000
vn -1.000000 0.000000 -0.000000
vn -1.000000 0.000000 -0.000000
vn 0.000000 -1.000000 0.000000
vn 0.000000 -1.000000 0.000000
vn 0.000000 -1.000000 0.000000
vn 0.000000 -1.000000 0.000000
vn 0.000000 0.000000 -1.000000
vn 0.000000 0.000000 -1.000000
vn 0.000000 0.000000 -1.000000
vn 0.000000 0.000000 -1.000000
vn 0.000000 0.000000 1.000000
vn 0.000000 0.000000 1.000000
vn 0.000000 0.000000 1.000000
vn 0.000000 0.000000 1.000000
s off
g BackWall
usemtl initialShadingGroup
f 33/57/97 34/58/98 36/60/99 35/59/100
f 35/59/101 36/60/102 38/62/103 37/61/104
f 37/61/105 38/62/106 40/64/107 39/63/108
f 39/63/109 40/64/110 34/66/111 33/65/112
f 34/58/113 40/67/114 38/68/115 36/60/116
f 39/69/117 33/57/118 35/59/119 37/70/120
g default
v -4.222982 12.363209 3.951937
v 4.222982 12.363209 3.951937
v -4.222982 12.677411 3.951937
v 4.222982 12.677411 3.951937
v -4.222982 12.677411 -3.951937
v 4.222982 12.677411 -3.951937
v -4.222982 12.363209 -3.951937
v 4.222982 12.363209 -3.951937
vt 0.122936 0.041204
vt 0.208972 0.041204
vt 0.122936 0.127241
vt 0.208972 0.127241
vt 0.122936 0.213277
vt 0.208972 0.213277
vt 0.122936 0.299314
vt 0.208972 0.299314
vt 0.122936 0.385351
vt 0.208972 0.385351
vt 0.295009 0.041204
vt 0.295009 0.127241
vt 0.036899 0.041204
vt 0.036899 0.127241
vn 0.000000 0.000000 1.000000
vn 0.000000 0.000000 1.000000
vn 0.000000 0.000000 1.000000
vn 0.000000 0.000000 1.000000
vn 0.000000 1.000000 0.000000
vn 0.000000 1.000000 0.000000
vn 0.000000 1.000000 0.000000
vn 0.000000 1.000000 0.000000
vn 0.000000 0.000000 -1.000000
vn 0.000000 0.000000 -1.000000
vn 0.000000 0.000000 -1.000000
vn 0.000000 0.000000 -1.000000
vn 0.000000 -1.000000 0.000000
vn 0.000000 -1.000000 0.000000
vn 0.000000 -1.000000 0.000000
vn 0.000000 -1.000000 0.000000
vn 1.000000 0.000000 0.000000
vn 1.000000 0.000000 0.000000
vn 1.000000 0.000000 0.000000
vn 1.000000 0.000000 0.000000
vn -1.000000 0.000000 0.000000
vn -1.000000 0.000000 0.000000
vn -1.000000 0.000000 0.000000
vn -1.000000 0.000000 0.000000
s off
g Ceiling
usemtl initialShadingGroup
f 41/71/121 42/72/122 44/74/123 43/73/124
f 43/73/125 44/74/126 46/76/127 45/75/128
f 45/75/129 46/76/130 48/78/131 47/77/132
f 47/77/133 48/78/134 42/80/135 41/79/136
f 42/72/137 48/81/138 46/82/139 44/74/140
f 47/83/141 41/71/142 43/73/143 45/84/144
g default
v 3.795459 3.168019 3.951937
v 4.210050 3.168019 3.951937
v 3.795459 12.403141 3.951937
v 4.210050 12.403141 3.951937
v 3.795459 12.403141 -3.951937
v 4.210050 12.403141 -3.951937
v 3.795459 3.168019 -3.951937
v 4.210050 3.168019 -3.951937
vt 0.480242 0.621668
vt 0.566279 0.621668
vt 0.480242 0.707704
vt 0.566279 0.707704
vt 0.480242 0.793741
vt 0.566279 0.793741
vt 0.480242 0.879777
vt 0.566279 0.879777
vt 0.480242 0.965814
vt 0.566279 0.965814
vt 0.652315 0.621668
vt 0.652315 0.707704
vt 0.394205 0.621668
vt 0.394205 0.707704
vn 0.000000 0.000000 1.000000
vn 0.000000 0.000000 1.000000
vn 0.000000 0.000000 1.000000
vn 0.000000 0.000000 1.000000
vn 0.000000 1.000000 0.000000
vn 0.000000 1.000000 0.000000
vn 0.000000 1.000000 0.000000
vn 0.000000 1.000000 0.000000
vn 0.000000 0.000000 -1.000000
vn 0.000000 0.000000 -1.000000
vn 0.000000 0.000000 -1.000000
vn 0.000000 0.000000 -1.000000
vn 0.000000 -1.000000 0.000000
vn 0.000000 -1.000000 0.000000
vn 0.000000 -1.000000 0.000000
vn 0.000000 -1.000000 0.000000
vn 1.000000 0.000000 0.000000
vn 1.000000 0.000000 0.000000
vn 1.000000 0.000000 0.000000
vn 1.000000 0.000000 0.000000
vn -1.000000 0.000000 0.000000
vn -1.000000 0.000000 0.000000
vn -1.000000 0.000000 0.000000
vn -1.000000 0.000000 0.000000
s off
g RightWall
usemtl initialShadingGroup
f 49/85/145 50/86/146 52/88/147 51/87/148
f 51/87/149 52/88/150 54/90/151 53/89/152
f 53/89/153 54/90/154 56/92/155 55/91/156
f 55/91/157 56/92/158 50/94/159 49/93/160
f 50/86/161 56/95/162 54/96/163 52/88/164
f 55/97/165 49/85/166 51/87/167 53/98/168
