# ###############################
# Obj file written by RoadKill1_1
# RoadKill by Andy Swann
# http://www.pullin-shapes.co.uk/
# ###############################
g RoadKillOut
o RoadKillOut
# 89 Vertex coords
v -4.124417 14.297936 -0.051885
v -4.145985 14.287801 -0.098692
v -4.179577 14.272018 -0.135838
v -4.221906 14.252128 -0.159687
v -4.268827 14.230080 -0.167905
v -4.315748 14.208032 -0.159687
v -4.358077 14.188142 -0.135838
v -4.391669 14.172359 -0.098692
v -4.413237 14.162224 -0.051885
v -4.420669 14.158733 0.000000
v -4.413237 14.162224 0.051885
v -4.391669 14.172359 0.098692
v -4.358077 14.188143 0.135838
v -4.315748 14.208032 0.159687
v -4.268827 14.230080 0.167905
v -4.221906 14.252128 0.159687
v -4.179577 14.272017 0.135838
v -4.145985 14.287801 0.098692
v -4.124417 14.297936 0.051885
v -4.116985 14.301428 0.000000
v -4.326581 14.344747 0.000000
v 0.097324 5.169961 0.135838
v 0.054995 5.150071 0.159687
v 0.008074 5.138916 0.167905
v -0.060183 5.192357 0.159687
v -0.081176 5.166533 0.135838
v -0.114769 5.120957 0.098692
v -0.136336 5.097718 0.051885
v -0.143768 5.093092 0.000000
v -0.195030 5.107637 -0.087102
v -0.139945 5.137727 -0.170041
v -0.122249 5.170868 -0.190077
v -0.038848 5.148347 -0.180322
v 0.008074 5.128024 -0.167905
v 0.054995 5.131245 -0.159687
v 0.097324 5.137589 -0.135838
v 0.130916 5.151743 -0.098692
v 0.174126 5.167661 -0.051885
v 0.181558 5.180118 0.000000
v 0.152483 5.218572 0.033642
v 0.130916 5.185744 0.081818
v -4.058378 14.014084 0.135838
v -4.100707 13.994195 0.159687
v -4.147628 13.972147 0.167905
v -4.194550 13.950098 0.159687
v -4.236878 13.930209 0.135838
v -4.270471 13.914425 0.098692
v -4.292037 13.904290 0.051885
v -4.299470 13.900799 0.000000
v -4.292037 13.904290 -0.051885
v -4.270471 13.914425 -0.098692
v -4.236878 13.930208 -0.135838
v -4.194550 13.950098 -0.159687
v -4.147628 13.972147 -0.167905
v -4.100707 13.994195 -0.159687
v -4.058378 14.014085 -0.135838
v -4.024786 14.029868 -0.098692
v -4.003219 14.040003 -0.051885
v -3.995786 14.043494 0.000000
v -4.003219 14.040003 0.051885
v -4.024786 14.029868 0.098692
v -0.500000 4.878889 2.682679
v 0.500000 4.878889 2.682679
v -0.500000 5.063957 2.682679
v 0.500000 5.063957 2.682679
v -0.500000 5.063957 -2.690955
v 0.500000 5.063957 -2.690955
v -0.500000 4.878889 -2.690955
v 0.500000 4.878889 -2.690955
v -0.173106 5.063957 2.682679
v -0.173106 5.063957 -2.690955
v -0.173106 4.878889 -2.690955
v -0.173106 4.878889 2.682679
v -0.693537 4.692443 2.930285
v 0.693537 4.692443 2.930285
v -0.693537 4.877511 2.930285
v 0.693537 4.877511 2.930285
v -0.693537 4.877511 -2.938561
v 0.693537 4.877511 -2.938561
v -0.693537 4.692443 -2.938561
v 0.693537 4.692443 -2.938561
v -0.172691 4.877511 -2.938561
v -0.172691 4.692443 -2.938561
v -0.172691 4.692443 2.930285
v -0.172691 4.877511 2.930285
v 0.018230 5.285477 0.041457
v 0.386769 5.073733 0.020522
v -0.201122 5.063818 -0.361588
v -0.133856 5.073570 0.286361

# 154 Normal vectors
vn 0.600160 0.083857 -0.795472
vn 0.737955 0.160074 -0.655590
vn 0.872012 0.240967 -0.426064
vn 0.963557 0.250039 -0.095077
vn 0.871288 0.318816 0.373113
vn 0.778774 0.182420 0.600195
vn 0.609734 0.125825 0.782555
vn 0.325693 -0.037039 0.944750
vn 0.121302 -0.145626 0.981875
vn -0.279353 -0.213236 0.936212
vn -0.495740 -0.416784 0.761927
vn -0.652056 -0.476830 0.589454
vn -0.781700 -0.540534 0.311076
vn -0.818429 -0.542169 0.190331
vn -0.860062 -0.489307 -0.144476
vn -0.666340 -0.458918 -0.587695
vn -0.310115 -0.223748 -0.923995
vn 0.028034 -0.183973 -0.982532
vn 0.162382 -0.139967 -0.976750
vn 0.363397 -0.025395 -0.931288
vn 0.176382 0.966783 -0.184987
vn 0.100657 0.930334 -0.352628
vn -0.429855 0.902898 -0.000001
vn -0.017943 0.873234 -0.486971
vn -0.168519 0.800703 -0.574870
vn -0.336892 0.719536 -0.607266
vn -0.506802 0.637565 -0.580226
vn -0.661406 0.562929 -0.495635
vn -0.785005 0.503227 -0.361289
vn -0.864781 0.464677 -0.190339
vn -0.892345 0.451355 0.000000
vn -0.864781 0.464676 0.190339
vn -0.785008 0.503227 0.361282
vn -0.661406 0.562929 0.495633
vn -0.506797 0.637564 0.580232
vn -0.336891 0.719536 0.607266
vn -0.168512 0.800704 0.574871
vn -0.017940 0.873235 0.486969
vn 0.100652 0.930335 0.352627
vn 0.176382 0.966783 0.184987
vn 0.202404 0.979302 0.000000
vn 0.576031 0.270351 0.771426
vn 0.285806 0.134316 0.948828
vn 0.000329 0.000072 1.000000
vn -0.321629 -0.151996 0.934586
vn -0.539882 -0.255470 0.802037
vn -0.695149 -0.328573 0.639380
vn -0.852376 -0.402301 0.334080
vn -0.887899 -0.417649 0.192885
vn -0.887889 -0.414361 -0.199894
vn -0.702343 -0.325224 -0.633201
vn -0.341633 -0.155849 -0.926822
vn -0.052014 -0.021647 -0.998412
vn 0.099147 0.047101 -0.993957
vn 0.298376 0.139872 -0.944144
vn 0.545921 0.255670 -0.797874
vn 0.690045 0.323559 -0.647416
vn 0.824574 0.387788 -0.411945
vn 0.904626 0.426062 -0.011140
vn 0.835843 0.392852 0.383449
vn 0.739168 0.346755 0.577402
vn 0.532267 0.250104 0.808789
vn 0.279886 0.131514 0.950983
vn 0.000001 0.000000 1.000000
vn -0.279884 -0.131513 0.950983
vn -0.532267 -0.250103 0.808790
vn -0.732419 -0.344151 0.587471
vn -0.860835 -0.404492 0.308785
vn -0.905064 -0.425275 0.000000
vn -0.860836 -0.404492 -0.308785
vn -0.732421 -0.344151 -0.587468
vn -0.532267 -0.250103 -0.808790
vn -0.279883 -0.131513 -0.950984
vn 0.000000 0.000000 -1.000000
vn 0.279887 0.131514 -0.950982
vn 0.532265 0.250103 -0.808791
vn 0.732418 0.344151 -0.587473
vn 0.860833 0.404491 -0.308794
vn 0.905064 0.425275 0.000000
vn 0.860832 0.404491 0.308797
vn 0.732418 0.344151 0.587473
vn 0.000000 0.000000 1.000000
vn 0.000000 0.000000 1.000000
vn 0.000000 0.000000 1.000000
vn 0.000000 0.000000 1.000000
vn 0.000000 0.000000 1.000000
vn 0.000000 0.000000 1.000000
vn 0.000000 1.000000 0.000000
vn 0.000000 1.000000 0.000000
vn 0.000000 1.000000 0.000000
vn 0.000000 1.000000 0.000000
vn 0.000000 1.000000 0.000000
vn 0.000000 1.000000 0.000000
vn 0.000000 0.000000 -1.000000
vn 0.000000 0.000000 -1.000000
vn 0.000000 0.000000 -1.000000
vn 0.000000 0.000000 -1.000000
vn 0.000000 0.000000 -1.000000
vn 0.000000 0.000000 -1.000000
vn 0.000000 -1.000000 0.000000
vn 0.000000 -1.000000 0.000000
vn 0.000000 -1.000000 0.000000
vn 0.000000 -1.000000 0.000000
vn 1.000000 0.000000 0.000000
vn 1.000000 0.000000 0.000000
vn 1.000000 0.000000 0.000000
vn 1.000000 0.000000 0.000000
vn -1.000000 0.000000 0.000000
vn -1.000000 0.000000 0.000000
vn -1.000000 0.000000 0.000000
vn -1.000000 0.000000 0.000000
vn 0.000000 -1.000000 0.000000
vn 0.000000 -1.000000 0.000000
vn 0.000000 0.000000 1.000000
vn 0.000000 0.000000 1.000000
vn 0.000000 0.000000 1.000000
vn 0.000000 0.000000 1.000000
vn 0.000000 0.000000 1.000000
vn 0.000000 0.000000 1.000000
vn 0.000000 1.000000 0.000000
vn 0.000000 1.000000 0.000000
vn 0.000000 1.000000 0.000000
vn 0.000000 1.000000 0.000000
vn 0.000000 1.000000 0.000000
vn 0.000000 1.000000 0.000000
vn 0.000000 0.000000 -1.000000
vn 0.000000 0.000000 -1.000000
vn 0.000000 0.000000 -1.000000
vn 0.000000 0.000000 -1.000000
vn 0.000000 0.000000 -1.000000
vn 0.000000 0.000000 -1.000000
vn 0.000000 -1.000000 0.000000
vn 0.000000 -1.000000 0.000000
vn 0.000000 -1.000000 0.000000
vn 0.000000 -1.000000 0.000000
vn 0.000000 -1.000000 0.000000
vn 0.000000 -1.000000 0.000000
vn 1.000000 0.000000 0.000000
vn 1.000000 0.000000 0.000000
vn 1.000000 0.000000 0.000000
vn 1.000000 0.000000 0.000000
vn -1.000000 0.000000 0.000000
vn -1.000000 0.000000 0.000000
vn -1.000000 0.000000 0.000000
vn -1.000000 0.000000 0.000000
vn -0.770078 0.634054 0.070401
vn -0.770078 0.634054 0.070401
vn -0.770078 0.634054 0.070401
vn 0.371861 0.575187 0.728615
vn 0.371861 0.575187 0.728615
vn 0.371861 0.575187 0.728615
vn 0.374728 0.711037 -0.594984
vn 0.374728 0.711037 -0.594984
vn 0.374728 0.711037 -0.594984

# 157 texture coords
vt 0.075440 0.001332 0.00
vt 0.075316 0.000773 0.00
vt 0.084363 0.000000 0.00
vt 0.084487 0.000827 0.00
vt 0.084969 0.003941 0.00
vt 0.084344 0.004015 0.00
vt 0.083963 0.004642 0.00
vt 0.083916 0.005122 0.00
vt 0.083980 0.005961 0.00
vt 0.083735 0.010219 0.00
vt 0.083483 0.009689 0.00
vt 0.082144 0.008962 0.00
vt 0.081378 0.008616 0.00
vt 0.080809 0.008558 0.00
vt 0.077836 0.010865 0.00
vt 0.074257 0.010069 0.00
vt 0.074099 0.010764 0.00
vt 0.073465 0.006657 0.00
vt 0.074259 0.004032 0.00
vt 0.074855 0.002544 0.00
vt 0.424324 0.910325 0.00
vt 0.427925 0.911501 0.00
vt 0.422447 0.922434 0.00
vt 0.430982 0.913733 0.00
vt 0.433196 0.916799 0.00
vt 0.434352 0.920395 0.00
vt 0.434339 0.924170 0.00
vt 0.433162 0.927753 0.00
vt 0.430937 0.930797 0.00
vt 0.427884 0.933006 0.00
vt 0.424299 0.934167 0.00
vt 0.420530 0.934167 0.00
vt 0.416945 0.933005 0.00
vt 0.413891 0.930794 0.00
vt 0.411667 0.927748 0.00
vt 0.410493 0.924160 0.00
vt 0.410485 0.920383 0.00
vt 0.411647 0.916784 0.00
vt 0.413868 0.913720 0.00
vt 0.416932 0.911492 0.00
vt 0.420535 0.910322 0.00
vt 0.072110 0.797250 0.00
vt 0.067614 0.796889 0.00
vt 0.063147 0.796500 0.00
vt 0.058693 0.796094 0.00
vt 0.054266 0.795672 0.00
vt 0.049860 0.795242 0.00
vt 0.045472 0.794803 0.00
vt 0.041105 0.794358 0.00
vt 0.036747 0.793924 0.00
vt 0.032403 0.793506 0.00
vt 0.028070 0.793089 0.00
vt 0.023764 0.792686 0.00
vt 0.019479 0.792283 0.00
vt 0.015206 0.791879 0.00
vt 0.010948 0.791473 0.00
vt 0.006698 0.791066 0.00
vt 0.070059 0.000000 0.00
vt 0.002459 0.790659 0.00
vt 0.090421 0.798255 0.00
vt 0.085801 0.798091 0.00
vt 0.081206 0.797859 0.00
vt 0.076642 0.797575 0.00
vt 0.069374 0.822774 0.00
vt 0.064764 0.822032 0.00
vt 0.060230 0.821312 0.00
vt 0.055759 0.820617 0.00
vt 0.051339 0.819948 0.00
vt 0.046961 0.819306 0.00
vt 0.042616 0.818691 0.00
vt 0.038299 0.818102 0.00
vt 0.034003 0.817540 0.00
vt 0.029724 0.817001 0.00
vt 0.025459 0.816484 0.00
vt 0.021205 0.815986 0.00
vt 0.016959 0.815503 0.00
vt 0.012717 0.815032 0.00
vt 0.008478 0.814570 0.00
vt 0.004239 0.814113 0.00
vt 0.000000 0.813660 0.00
vt 0.088822 0.825365 0.00
vt 0.083825 0.825070 0.00
vt 0.078887 0.824301 0.00
vt 0.074077 0.823533 0.00
vt 0.398528 0.931232 0.00
vt 0.398528 0.910322 0.00
vt 0.410366 0.910322 0.00
vt 0.410366 0.931232 0.00
vt 0.410366 0.974289 0.00
vt 0.398528 0.974289 0.00
vt 0.289521 0.871702 0.00
vt 0.291468 0.909562 0.00
vt 0.001946 0.909562 0.00
vt 0.000000 0.871702 0.00
vt 0.000239 0.833618 0.00
vt 0.289761 0.833619 0.00
vt 0.386572 0.931232 0.00
vt 0.386572 0.910322 0.00
vt 0.398410 0.910322 0.00
vt 0.398410 0.931232 0.00
vt 0.398410 0.974289 0.00
vt 0.386572 0.974289 0.00
vt 0.583904 0.833618 0.00
vt 0.585850 0.871478 0.00
vt 0.296329 0.871478 0.00
vt 0.294382 0.833618 0.00
vt 0.002207 0.910322 0.00
vt 0.179533 0.910322 0.00
vt 0.177327 0.933269 0.00
vt 0.000000 0.933269 0.00
vt 0.358655 0.933269 0.00
vt 0.181329 0.933269 0.00
vt 0.183535 0.910322 0.00
vt 0.360862 0.910322 0.00
vt 0.585611 0.909562 0.00
vt 0.296089 0.909562 0.00
vt 0.374615 0.943639 0.00
vt 0.374614 0.910322 0.00
vt 0.386452 0.910322 0.00
vt 0.386453 0.943639 0.00
vt 0.386453 0.999048 0.00
vt 0.374615 0.999048 0.00
vt 0.787905 0.051032 0.00
vt 0.789516 0.096338 0.00
vt 0.443768 0.096338 0.00
vt 0.442157 0.051032 0.00
vt 0.442157 0.000000 0.00
vt 0.787905 0.000000 0.00
vt 0.362657 0.943639 0.00
vt 0.362658 0.910322 0.00
vt 0.374496 0.910322 0.00
vt 0.374496 0.943639 0.00
vt 0.374496 0.999048 0.00
vt 0.362657 0.999048 0.00
vt 0.092936 0.045307 0.00
vt 0.091325 0.000000 0.00
vt 0.437073 0.000000 0.00
vt 0.438684 0.045307 0.00
vt 0.438684 0.096338 0.00
vt 0.092936 0.096338 0.00
vt 0.780770 0.833618 0.00
vt 0.966148 0.833618 0.00
vt 0.963774 0.857592 0.00
vt 0.778395 0.857592 0.00
vt 0.774143 0.857592 0.00
vt 0.588765 0.857592 0.00
vt 0.591139 0.833618 0.00
vt 0.776518 0.833618 0.00
vt 0.496107 0.928132 0.00
vt 0.454432 0.928132 0.00
vt 0.468805 0.910322 0.00
vt 0.513089 0.910322 0.00
vt 0.513089 0.947715 0.00
vt 0.496524 0.926114 0.00
vt 0.434591 0.955177 0.00
vt 0.434591 0.910322 0.00
vt 0.454236 0.936334 0.00

# 77 Faces
f  36/1/1  37/2/2  38/3/3  39/4/4  40/5/5  41/6/6  22/7/7  23/8/8  24/9/9  25/10/10  26/11/11  27/12/12  28/13/13  29/14/14  30/15/15  31/16/16  32/17/17  33/18/18  34/19/19  35/20/20 
f  1/21/21  2/22/22  21/23/23 
f  2/22/22  3/24/24  21/23/23 
f  3/24/24  4/25/25  21/23/23 
f  4/25/25  5/26/26  21/23/23 
f  5/26/26  6/27/27  21/23/23 
f  6/27/27  7/28/28  21/23/23 
f  7/28/28  8/29/29  21/23/23 
f  8/29/29  9/30/30  21/23/23 
f  9/30/30  10/31/31  21/23/23 
f  10/31/31  11/32/32  21/23/23 
f  11/32/32  12/33/33  21/23/23 
f  12/33/33  13/34/34  21/23/23 
f  13/34/34  14/35/35  21/23/23 
f  14/35/35  15/36/36  21/23/23 
f  15/36/36  16/37/37  21/23/23 
f  16/37/37  17/38/38  21/23/23 
f  17/38/38  18/39/39  21/23/23 
f  18/39/39  19/40/40  21/23/23 
f  19/40/40  20/41/41  21/23/23 
f  20/41/41  1/21/21  21/23/23 
f  23/8/8  22/7/7  42/42/42  43/43/43 
f  24/9/9  23/8/8  43/43/43  44/44/44 
f  25/10/10  24/9/9  44/44/44  45/45/45 
f  26/11/11  25/10/10  45/45/45  46/46/46 
f  27/12/12  26/11/11  46/46/46  47/47/47 
f  28/13/13  27/12/12  47/47/47  48/48/48 
f  29/14/14  28/13/13  48/48/48  49/49/49 
f  30/15/15  29/14/14  49/49/49  50/50/50 
f  31/16/16  30/15/15  50/50/50  51/51/51 
f  32/17/17  31/16/16  51/51/51  52/52/52 
f  33/18/18  32/17/17  52/52/52  53/53/53 
f  34/19/19  33/18/18  53/53/53  54/54/54 
f  35/20/20  34/19/19  54/54/54  55/55/55 
f  36/1/1  35/20/20  55/55/55  56/56/56 
f  37/2/2  36/1/1  56/56/56  57/57/57 
f  38/58/3  37/2/2  57/57/57  58/59/58 
f  39/4/4  38/3/3  58/60/58  59/61/59 
f  40/5/5  39/4/4  59/61/59  60/62/60 
f  41/6/6  40/5/5  60/62/60  61/63/61 
f  22/7/7  41/6/6  61/63/61  42/42/42 
f  43/43/43  42/42/42  17/64/62  16/65/63 
f  44/44/44  43/43/43  16/65/63  15/66/64 
f  45/45/45  44/44/44  15/66/64  14/67/65 
f  46/46/46  45/45/45  14/67/65  13/68/66 
f  47/47/47  46/46/46  13/68/66  12/69/67 
f  48/48/48  47/47/47  12/69/67  11/70/68 
f  49/49/49  48/48/48  11/70/68  10/71/69 
f  50/50/50  49/49/49  10/71/69  9/72/70 
f  51/51/51  50/50/50  9/72/70  8/73/71 
f  52/52/52  51/51/51  8/73/71  7/74/72 
f  53/53/53  52/52/52  7/74/72  6/75/73 
f  54/54/54  53/53/53  6/75/73  5/76/74 
f  55/55/55  54/54/54  5/76/74  4/77/75 
f  56/56/56  55/55/55  4/77/75  3/78/76 
f  57/57/57  56/56/56  3/78/76  2/79/77 
f  58/59/58  57/57/57  2/79/77  1/80/78 
f  59/61/59  58/60/58  1/81/78  20/82/79 
f  60/62/60  59/61/59  20/82/79  19/83/80 
f  61/63/61  60/62/60  19/83/80  18/84/81 
f  42/42/42  61/63/61  18/84/81  17/64/62 
f  70/85/82  64/86/83  62/87/84  73/88/85  63/89/86  65/90/87 
f  71/91/88  66/92/89  64/93/90  70/94/91  65/95/92  67/96/93 
f  72/97/94  68/98/95  66/99/96  71/100/97  67/101/98  69/102/99 
f  68/103/100  72/104/101  73/105/102  62/106/103 
f  63/107/104  69/108/105  67/109/106  65/110/107 
f  68/111/108  62/112/109  64/113/110  66/114/111 
f  73/105/102  72/104/101  69/115/112  63/116/113 
f  85/117/114  76/118/115  74/119/116  84/120/117  75/121/118  77/122/119 
f  82/123/120  78/124/121  76/125/122  85/126/123  77/127/124  79/128/125 
f  83/129/126  80/130/127  78/131/128  82/132/129  79/133/130  81/134/131 
f  84/135/132  74/136/133  80/137/134  83/138/135  81/139/136  75/140/137 
f  75/141/138  81/142/139  79/143/140  77/144/141 
f  80/145/142  74/146/143  76/147/144  78/148/145 
f  88/149/146  89/150/147  86/151/148 
f  89/152/149  87/153/150  86/154/151 
f  87/155/152  88/156/153  86/157/154 
